<svg id="Слой_1" xmlns="http://www.w3.org/2000/svg" viewBox="0 0 598.8 86"><style>.st0{fill-rule:evenodd;clip-rule:evenodd}</style><path d="M44.5 66.4c-6.1 4.5-12.9 8.7-20.6 8.7-6.6 0-12.5-2.7-16.9-7-4.3-4.3-7-10.3-7-16.9 0-6.6 2.7-12.5 7-16.9 4.3-4.3 10.3-7 16.9-7V42c-5.1 0-9.3 4.2-9.3 9.3s4.2 9.3 9.3 9.3c4.5 0 10.7-4.7 14.5-7.7-1.2 1.2-2.4 2.2-3.4 3 1.6 2.6 3.5 5.1 5.6 7.2 1.2 1.1 2.5 2.3 3.9 3.3m46-5.9c3.6 0 6.8-1.4 9.1-3.8 2.3-2.3 3.8-5.6 3.8-9.1s-1.4-6.7-3.7-9c-2.4-2.4-5.7-3.9-9.3-4-10.2-.2-20.8 9.7-31.2 19.4-.9.9-1.9 1.8-2.9 2.6-4-2.1-7.8-7.1-8.7-11.8.6-.5 1.1-1 1.6-1.5C61.7 31.7 74.6 19.7 90.6 20c7.6.2 14.4 3.3 19.4 8.2 4.9 4.9 8 11.7 8 19.3 0 7.6-3.1 14.5-8.1 19.4-5 5-11.8 8.1-19.4 8.1-3.8 0-7.4-.8-10.6-2.1-3.4-1.4-6.4-3.5-9-6.1l10.4-10.2c1.2 1.2 2.5 2.2 4.2 2.9 1.6.7 3.3 1 5 1z"/><path class="st0" d="M96.1 9.1c.4-.3.6-.7.6-1.2 0-.7-.5-1.5-1.5-1.5h-1.8v4.1h1.1V9.2h.6l.7 1.3h1.1v-.2l-.8-1.2zm-1.6-.7v-1h.7c.3 0 .4.2.4.5s-.1.5-.4.5h-.7zm.4-8.4l2.5 4.8 5.6 1-3.8 3.8.8 5.6-4.8-2.5-5.2 2.5.8-5.3-3.9-4.1 5.4-.8 2.6-5zm223.2 50.7c-1.5-11.1-10.6-16.5-19.9-16.5-10.1 0-20.8 7-20.8 20.7 0 13.8 10.4 20.5 20.7 20.5 9.4 0 18.7-5.6 20.1-16.8H305c-1 3.4-3.7 5-6.5 4.9-3.6-.1-7.5-3-7.5-8.7s3.9-8.5 7.6-8.6c2.7 0 5.3 1.5 6.3 4.5h13.2zm15.5-.1c1-4 3.6-5.3 6.2-5.6 2.1 0 5.3.6 5.3 3.3.1 2.2-1.9 3.6-3.9 3.6-2.5.3-5.6-.4-7.6-1.3zm6-16.2c-10 .4-20.2 7.4-19.8 21.5.4 13.9 10 20.2 23.4 19.5 5.2-.2 9.7-.8 14.2-3.4l-.6-10.3c-2.8 1.5-8.1 2.8-12.7 3.1-5.5.2-10.1-1.4-11-6.6 3.2 1.5 7 2.3 10.9 2 7.1-.4 14.1-4.1 14.3-12.2.3-10.4-9.7-13.9-18.7-13.6zm-81 20.2c-.1 4.9-1.9 8.4-6 8.4-4.5.1-6.8-3.1-6.9-8.3.2-6.5 3.2-9.2 8.1-9.2 1.4 0 3.2.2 4.8.6v8.5zm-3.7-20c-13.3-.2-22.5 6.4-22.9 19.8 0 11.3 5.4 20.5 17.6 20.7 4.6 0 9.2-2.3 11.3-6.6v.5c0 7.5 9.5 6 14.4 4.9v-7.5c-3.5 0-3.3-1.4-3.3-4.5V38.2c-5.5-2.2-11.3-3.5-17.1-3.6zM209 46.4c4.5-.2 7 3.3 7 8.5 0 5.3-2.1 8.9-6.9 8.9-4.1 0-6.2-3.9-6.2-8.8 0-5.1 2-8.6 6.1-8.6zm-8.2-6c0-7.5-9.6-6.1-14.3-5v7.5c3.5 0 3.2 1.5 3.2 4.5V86h12.8V69.8c1.9 4 6.2 5.4 10.4 5.4 11.5 0 17-9.9 17-20.3 0-11.2-5.4-20.5-17.7-20.7-4.5 0-9.2 2.3-11.3 6.5v-.3zm-62.5 16.7c-.2 12.7 11.3 18.7 23.3 18.7 11.6 0 23.2-6.2 23.2-18.1 0-13.8-10.5-16.6-22.6-17.7-5.4-.6-8.7-1.5-8.7-5.3 0-4.3 4.4-5.2 7.7-5.2 4 0 7.6 1.6 7.7 5.5h13.9c.2-12.3-10.9-18.6-21.8-18.6-11.6 0-22 6.2-22 18.6 0 11.8 10.4 16 20.7 16.6 4.1.2 10.5.5 10.5 5.9 0 3.4-4.5 5.3-8.7 5.3-4.5 0-9-1.9-9-5.8h-14.2zm422.6 6c-4.6.1-6.9-3.3-6.9-8.6 0-5.2 2.1-8.9 6.6-8.9 4.1 0 6.4 3.9 6.4 8.8.1 4.9-1.8 8.7-6.1 8.7m8.3 6c0 7.5 9.5 6 14.4 4.9v-7.5c-3.5 0-3.3-1.4-3.3-4.5V22.8h-12.8v16.7c-1.9-4-6.2-5.3-10.4-5.3-11.4 0-17.1 9.9-16.9 20.3 0 11.3 5.4 20.5 17.6 20.7 4.6 0 9.2-2.3 11.3-6.6v.5zm-48.1-33.6v21.9c0 4.3-3 7-6.2 7-2.8 0-5.3-2-5.1-6.7V35.5h-13.9v22.1c0 9.8 2.8 17.5 14.4 17.5 4.5 0 9.2-2.3 11.2-6.4 0 8.7 11.4 7 16.7 5.7v-7.5c-3.2 0-3.2-1.2-3.2-3.8V35.5h-13.9zm-56.9 19.3c0-5.8 3.7-8.6 7.3-8.5 3.5.1 6.8 2.9 6.8 8.5s-3.3 8.5-7 8.5c-3.5.2-7.1-2.7-7.1-8.5zm27.8 0c0-13.7-10.3-20.5-20.6-20.6-10.5-.1-21 6.7-21 20.6 0 13.8 10.5 20.6 20.9 20.6 10.5.1 20.7-6.8 20.7-20.6zm-62.7-32v36c0 15.1 8.7 18.1 20.8 15.9l-.4-10.3c-4.1.6-6.8-.4-6.8-5.7V22.8h-13.6zm-59.6 23.5c0 19.1 14.5 28.8 29 28.8 12.1 0 24.6-6.4 26.8-22.5h-14.3c-1.5 6.2-6.4 9-12.6 9-8.7 0-14.2-7.2-14.2-15.4 0-9.4 5.6-15.6 14.2-15.6 6.1 0 10.4 2.3 12.4 8.1h14.3c-2.2-15.2-15-21.5-26.7-21.5-14.4.1-28.9 9.6-28.9 29.1z"/><path d="M65.2 75.3c-10.3 0-19.6-4.2-26.3-10.9-6.8-6.8-11-16.1-11-26.4C27.9 17.4 44.6.7 65.2.7c4.5 0 8.9.8 13 2.4.6.2 1.3.5 1.9.8v17c-2-1.8-4.4-3.2-6.9-4.1-2.4-.9-5.1-1.4-7.9-1.4-12.5 0-22.7 10.2-22.7 22.7 0 6.3 2.5 11.9 6.6 16s9.8 6.6 16 6.6c2.8 0 5.5-.5 7.9-1.4 2.5-1 4.9-2.4 6.9-4.1l9.5 11c-3.3 2.9-7.2 5.2-11.4 6.8-4 1.5-8.4 2.3-12.9 2.3zm529.1-58.8l1.1 1.8v.2h-1.6l-1-1.8h-.8v1.8h-1.5v-5.7h2.5c1.4 0 2 1 2 2 .2.7-.1 1.3-.7 1.7m-2.2-1h1c.4 0 .6-.4.6-.7 0-.4-.2-.7-.6-.7h-1v1.4zm4.9-4.1c-1.1-1.1-2.6-1.7-4.2-1.7s-3.1.7-4.2 1.7c-1.1 1.1-1.7 2.6-1.7 4.2s.7 3.1 1.7 4.2c1.1 1.1 2.6 1.7 4.2 1.7s3.1-.7 4.2-1.7c1.1-1.1 1.7-2.6 1.7-4.2.1-1.6-.6-3.1-1.7-4.2z"/></svg>